<svg xmlns="http://www.w3.org/2000/svg" xml:space="preserve" width="2000" height="1500" data-id="lg_seyDCMeA7lBmaFphgk" data-version="1" viewBox="0 0 2000 1500"><path fill="#c1cbff" stroke="transparent" d="M0 0h2000v1500H0z"/><g data-padding="20"><g transform="translate(-1600.7 -1211.947)scale(2.53496)"><rect width="389.216" height="179.67" x="425.63" y="283.651" fill="none" rx="0" ry="0" transform="translate(485.9 400.47)"/><path fill="#220f01" d="M917.538 823.406v-111.3h24.97l11.13 79.65h.31l11.13-79.65h24.97v111.3h-16.54v-84.27h-.32l-12.72 84.27h-14.63l-12.72-84.27h-.31v84.27Zm80.93 0 18.13-111.3h23.69l18.13 111.3h-17.49l-3.18-22.11v.32h-19.88l-3.18 21.79Zm21.47-36.89h15.74l-7.79-55.02h-.32Zm42.13 36.89 20.2-56.93-19.24-54.37h18.44l11.77 35.93h.32l12.08-35.93h16.54l-19.24 54.37 20.19 56.93h-18.44l-12.72-38.8h-.32l-13.04 38.8Zm69.33 0v-111.3h25.76q13.03 0 19.55 6.99 6.52 7 6.52 20.51v10.97q0 13.52-6.52 20.51-6.52 7-19.55 7h-8.27v45.32Zm17.49-61.22h8.27q4.29 0 6.44-2.38 2.14-2.39 2.14-8.11v-13.2q0-5.72-2.14-8.11-2.15-2.38-6.44-2.38h-8.27Zm39.27 61.22 18.13-111.3h23.69l18.12 111.3h-17.49l-3.18-22.11v.32h-19.87l-3.18 21.79Zm21.47-36.89h15.74l-7.79-55.02h-.32Zm62.96 36.89v-47.39l-21.15-63.91h18.61l11.92 40.86h.32l11.92-40.86h17.02l-21.15 63.91v47.39Zm-403.563-94.823H751.521c-6 .02-10.86 4.88-10.88 10.88v61.795c.02 6.001 4.88 10.862 10.88 10.88h117.504c6.001-.018 10.861-4.879 10.88-10.88v-61.795c0-6.009-4.87-10.88-10.88-10.88m-119.05 9.334q.628-.63 1.546-.63h117.504c.595 0 1.105.238 1.547.63.391.416.63.935.63 1.547v5.15H749.344v-5.15c0-.613.238-1.13.63-1.548m120.597 64.89a2.13 2.13 0 0 1-1.547.628H751.521c-.586 0-1.105-.238-1.547-.629a2.2 2.2 0 0 1-.629-1.547v-41.402h121.856v41.403a2.2 2.2 0 0 1-.629 1.547"/><path fill="#220f01" d="M832.577 784.071h21.216v11.968h-21.216Z"/></g><path fill="transparent" stroke="transparent" stroke-width="2.627" d="M250 513.573h1500v472.854H250z"/></g></svg>